<svg width="584" height="200" viewBox="0 0 584 200" fill="none" xmlns="http://www.w3.org/2000/svg">
<path d="M293.825 2.49957L580.586 92.9146L582.017 93.3658L581.566 94.7955L577.356 108.148L576.905 109.579L575.474 109.128L292.749 19.9839L8.42432 109.631L6.99365 110.083L6.54248 108.652L2.33252 95.3004L1.88135 93.8697L3.31201 93.4185L291.672 2.49957L291.868 1.88141L292.749 2.15973L293.63 1.88141L293.825 2.49957Z" fill="#CDD2D0" stroke="#28445A" stroke-width="3"/>
<rect x="39.2632" y="176.264" width="507" height="22" fill="#F4C678" stroke="#28445A" stroke-width="3"/>
<path d="M292.763 21.7633L530.92 96.7633H54.6062L292.763 21.7633Z" fill="#F4C678"/>
<rect x="54.7632" y="96.7632" width="475" height="94" fill="#F4C678"/>
<line x1="56.2632" y1="177.763" x2="56.2632" y2="94.7632" stroke="#28445A" stroke-width="3"/>
<line x1="528.263" y1="177.763" x2="528.263" y2="94.7632" stroke="#28445A" stroke-width="3"/>
<circle cx="292.763" cy="79.7632" r="18.5" fill="white" stroke="#28445A" stroke-width="3" class="no-recolor"/>
</svg>
